# xmcd CD database file
# Copyright (C) 1997 Ti Kan
#
# Track frame offsets:
#  150
#  13417
#  32292
#  46657
#  65955
#  80432
#  91942
#  106295
#  122642
#  141562
#  159087
#
# Disc length: 2330 seconds
#
# Revision: 2
# Processed by: cddbd v1.4PL0 Copyright (c) Steve Scherf et al.
# Submitted via: Gronk 1.4
#
DISCID=8909180b
DTITLE=Stu Blank - Under the Big Top
DYEAR=1900
DGENRE=blues
TTITLE0=Brand New Lover
TTITLE1=Dimples
TTITLE2=Demo Derby
TTITLE3=Bittersweet Senorita
TTITLE4=Crosstown
TTITLE5=Soon and very Soon
TTITLE6=Big Blonde Boogie
TTITLE7=Little Girl in the Window
TTITLE8=The Letter
TTITLE9=Is is True?
TTITLE10=On a Country Nite
EXTD=
EXTT0=
EXTT1=
EXTT2=
EXTT3=
EXTT4=
EXTT5=
EXTT6=
EXTT7=
EXTT8=
EXTT9=
EXTT10=
PLAYORDER=
